<?xml version="1.0" encoding="UTF-8"?>
<svg version="1.1" xmlns="http://www.w3.org/2000/svg" width="612" height="408">
<path d="M0 0 C1.09521973 0.16097168 2.19043945 0.32194336 3.31884766 0.48779297 C21.16590795 3.24143011 38.83310692 7.91763561 55.46166992 15.05688477 C58.34166556 16.12694566 61.05684133 16.61526079 64.09375 17.078125 C65.8713269 17.36006714 65.8713269 17.36006714 67.68481445 17.64770508 C68.94382568 17.8464624 70.20283691 18.04521973 71.5 18.25 C98.01362972 22.6686638 124.2294713 28.96138033 141.34375 51.44140625 C143.90339558 55.39557573 145.60662857 59.51287166 147 64 C147.28810547 64.91265625 147.28810547 64.91265625 147.58203125 65.84375 C150.60902858 81.45966146 145.46202224 93.30696664 137 106 C136.12532101 112.5837104 135.9224724 121.85163275 139.64453125 127.4921875 C141.66124764 129.15764963 141.66124764 129.15764963 143.8671875 130.546875 C150.88886911 135.33087785 153.93203228 144.44656784 155.46875 152.4375 C156.66273263 161.12101002 155.23085355 168.69787573 150.70703125 176.2109375 C149.77407453 178.57167882 150.10752895 179.64921285 151 182 C151.72760026 183.21447031 152.50247471 184.40138015 153.3125 185.5625 C161.17860516 197.79361149 163.67213139 212.22919074 160.9375 226.375 C157.24391391 240.97754966 147.75190121 251.79188884 135.00390625 259.43359375 C113.20784269 270.79929139 89.03936065 269.32482448 66 263 C62.07991588 261.74666986 58.22899252 260.34981309 54.39453125 258.85546875 C46.59897249 256.89088029 37.44917499 259.98870592 29.6953125 261.4765625 C27.70946122 261.85384562 25.7236081 262.23111929 23.73767567 262.60797501 C21.6388108 263.00644102 19.5401216 263.40582376 17.44143677 263.80523682 C-63.16160167 279.12904318 -63.16160167 279.12904318 -88 280 C-88.86592773 280.03174316 -89.73185547 280.06348633 -90.62402344 280.09619141 C-119.06468495 280.9712061 -146.83665579 276.59709958 -172.4375 263.8125 C-177.40623263 261.43854997 -181.92517318 260.30642783 -187.3125 259.5 C-200.49750916 257.51623045 -212.20404721 252.92912835 -223 245 C-223.65355469 244.52949219 -224.30710938 244.05898438 -224.98046875 243.57421875 C-233.2344787 237.1058445 -238.36899669 228.11710535 -240.6875 218 C-241.99930827 205.40664062 -238.97817361 195.48543274 -232 185 C-230.99280923 183.33766894 -229.99087774 181.67210618 -229 180 C-229.77923828 179.00033203 -229.77923828 179.00033203 -230.57421875 177.98046875 C-240.40237594 164.99131461 -244.51070793 153.32741742 -243 137 C-241.52272151 130.13409947 -238.98829312 124.6975616 -235 119 C-235 117.68 -235 116.36 -235 115 C-236.6320024 113.62445512 -238.30614662 112.29862092 -240 111 C-241.76614263 108.85855206 -243.40350237 106.75870947 -245 104.5 C-245.43570313 103.88632568 -245.87140625 103.27265137 -246.3203125 102.64038086 C-250.13015839 97.10883254 -252.87615634 91.38038034 -255 85 C-255.36351562 83.90945312 -255.72703125 82.81890625 -256.1015625 81.6953125 C-259.06657706 69.50007872 -257.64728925 56.51779817 -251.64453125 45.515625 C-242.92260873 31.5792555 -230.4767435 25.3091386 -215 21 C-214.36143066 20.81695312 -213.72286133 20.63390625 -213.06494141 20.4453125 C-204.50149567 18.08002751 -195.92876665 16.91815011 -187.0859375 16.26171875 C-186.28433197 16.20179749 -185.48272644 16.14187622 -184.65682983 16.08013916 C-180.60962735 15.78534274 -176.56316969 15.52238809 -172.51123047 15.30224609 C-163.55148236 14.75729593 -155.88634225 13.33940055 -147.45361328 10.25024414 C-142.33130381 8.39591452 -137.11903283 7.14298919 -131.8125 5.9375 C-130.71518555 5.68709961 -129.61787109 5.43669922 -128.48730469 5.17871094 C-115.76106568 2.37425827 -102.927648 0.57822652 -90 -1 C-89.09491699 -1.11859375 -88.18983398 -1.2371875 -87.25732422 -1.359375 C-58.61753051 -5.05554196 -28.51103008 -4.20914929 0 0 Z " fill="#FDD056" transform="translate(355,83)"/>
<path d="M0 0 C-3.56744388 2.06704368 -7.11320357 2.78086797 -11.13671875 3.59375 C-11.8638205 3.74137283 -12.59092224 3.88899567 -13.34005737 4.04109192 C-15.78780713 4.53469309 -18.23741956 5.0181079 -20.6875 5.5 C-21.54036591 5.66930023 -22.39323181 5.83860046 -23.27194214 6.01303101 C-39.99663897 9.32572814 -56.77317266 12.34741963 -73.5625 15.3125 C-74.75708832 15.52487305 -75.95167664 15.73724609 -77.1824646 15.95605469 C-108.12538761 21.44222832 -139.51559852 26.58359041 -171 23 C-171 22.67 -171 22.34 -171 22 C-169.28623169 21.970271 -169.28623169 21.970271 -167.5378418 21.93994141 C-163.20058196 21.86247647 -158.86359816 21.77400891 -154.52661133 21.68261719 C-152.66794376 21.64489722 -150.80921716 21.6099585 -148.95043945 21.578125 C-132.12537191 21.28670299 -115.80291352 20.15180834 -99.3359375 16.59765625 C-94.85104981 15.79415764 -90.53684927 15.71177663 -86 16 C-86 15.34 -86 14.68 -86 14 C-84.37191406 13.81824219 -84.37191406 13.81824219 -82.7109375 13.6328125 C-81.26558596 13.46387531 -79.82027558 13.29458575 -78.375 13.125 C-77.30572266 13.00705078 -77.30572266 13.00705078 -76.21484375 12.88671875 C-72.96385664 12.49898634 -70.09176015 12.03066565 -66.97265625 10.98828125 C-63.36797447 9.7898785 -59.82018807 9.42131975 -56.0625 9.0625 C-47.91017392 8.19623214 -40.02015903 6.715941 -32 5 C-30.27132183 4.66414253 -28.54220714 4.33051729 -26.8125 4 C-23.15601481 3.2844689 -19.59482828 2.35250096 -16 1.375 C-10.57099012 -0.02444685 -5.58080782 -0.33336684 0 0 Z " fill="#F9E5A8" transform="translate(406,339)"/>
<path d="M0 0 C0 0.33 0 0.66 0 1 C-4.00052291 0.8891747 -8.00018388 0.75877311 -12 0.625 C-13.68802734 0.57859375 -13.68802734 0.57859375 -15.41015625 0.53125 C-17.06337891 0.47324219 -17.06337891 0.47324219 -18.75 0.4140625 C-20.25820313 0.36693115 -20.25820313 0.36693115 -21.796875 0.31884766 C-25 0 -25 0 -28.54174805 -1.01147461 C-34.46415365 -2.57192043 -40.49954262 -2.2657196 -46.58203125 -2.23046875 C-47.8731633 -2.23001053 -49.16429535 -2.22955231 -50.49455261 -2.2290802 C-53.21183753 -2.22752504 -55.92898888 -2.219306 -58.64624023 -2.20581055 C-62.12758583 -2.18873711 -65.60878637 -2.18499919 -69.09016895 -2.18575573 C-72.42080915 -2.18541873 -75.75140176 -2.17658668 -79.08203125 -2.16796875 C-80.95699028 -2.16629951 -80.95699028 -2.16629951 -82.86982727 -2.16459656 C-84.60259163 -2.15502678 -84.60259163 -2.15502678 -86.37036133 -2.14526367 C-87.89636711 -2.13954597 -87.89636711 -2.13954597 -89.45320129 -2.13371277 C-92.12308253 -2.10677987 -92.12308253 -2.10677987 -95 -1 C-97.57265818 -0.92970879 -100.11641431 -0.90629168 -102.6875 -0.9375 C-103.38939453 -0.94201172 -104.09128906 -0.94652344 -104.81445312 -0.95117188 C-106.54300538 -0.96293073 -108.27151365 -0.98086546 -110 -1 C-110 -1.33 -110 -1.66 -110 -2 C-73.17718102 -6.74970152 -36.61774442 -6.40512471 0 0 Z " fill="#F8E8B6" transform="translate(367,85)"/>
<path d="M0 0 C-3.88122772 2.34295595 -8.15667878 2.98963108 -12.54296875 3.83984375 C-13.80576408 4.09127892 -13.80576408 4.09127892 -15.09407043 4.34779358 C-16.88143466 4.70257846 -18.66935003 5.05459629 -20.45776367 5.40405273 C-23.13382608 5.927011 -25.80823543 6.45777568 -28.48242188 6.99023438 C-36.7939734 8.63798035 -45.11453772 10.23682465 -53.453125 11.7421875 C-54.13702805 11.86806747 -54.82093109 11.99394745 -55.52555847 12.12364197 C-60.43749241 12.99432257 -65.02688516 13.27126081 -70 13 C-65.29523118 10.64761559 -61.55751527 9.6627735 -56.3125 9.125 C-48.08138964 8.22219355 -40.10004159 6.73303216 -32 5 C-30.27132183 4.66414253 -28.54220714 4.33051729 -26.8125 4 C-23.15601481 3.2844689 -19.59482828 2.35250096 -16 1.375 C-10.57099012 -0.02444685 -5.58080782 -0.33336684 0 0 Z " fill="#F9E29E" transform="translate(406,339)"/>
<path d="M0 0 C1.06420545 2.70538976 1.04564409 3.86465534 0.1015625 6.6640625 C-4.97551772 16.84508579 -11.36443321 24.84963822 -21 31 C-21.66 30.01 -22.32 29.02 -23 28 C-21.02 27.67 -19.04 27.34 -17 27 C-16.814375 25.7934375 -16.814375 25.7934375 -16.625 24.5625 C-16.41875 23.716875 -16.2125 22.87125 -16 22 C-15.34 21.67 -14.68 21.34 -14 21 C-13.34 21.33 -12.68 21.66 -12 22 C-12.226875 21.113125 -12.45375 20.22625 -12.6875 19.3125 C-13.05451946 15.42209376 -12.26881841 14.08559304 -10 11 C-7.525 11.99 -7.525 11.99 -5 13 C-5 11.02 -5 9.04 -5 7 C-4.01 6.67 -3.02 6.34 -2 6 C-2 5.01 -2 4.02 -2 3 C-1.34 3 -0.68 3 0 3 C0 2.01 0 1.02 0 0 Z " fill="#FAD46E" transform="translate(514,309)"/>
<path d="M0 0 C0 0.66 0 1.32 0 2 C-5.70806675 3.26249006 -11.38060247 4.19039734 -17.1875 4.875 C-29.97515588 6.04628509 -29.97515588 6.04628509 -41 11 C-43.85528607 11.400383 -46.69736487 11.7518227 -49.5625 12.0625 C-50.77196289 12.19881836 -50.77196289 12.19881836 -52.00585938 12.33789062 C-54.00347377 12.56247449 -56.0016856 12.78173236 -58 13 C-53.46225929 9.97483952 -48.42417749 9.0223198 -43.1875 7.625 C-42.03145264 7.31554443 -40.87540527 7.00608887 -39.68432617 6.68725586 C-32.10611143 4.70439945 -24.51812927 2.97123401 -16.8125 1.5625 C-15.47964966 1.31717529 -15.47964966 1.31717529 -14.11987305 1.06689453 C-9.34047972 0.24205262 -4.84876843 -0.16403141 0 0 Z " fill="#F8E29D" transform="translate(256,84)"/>
<path d="M0 0 C10.52241471 1.3820485 20.98876233 2.85932724 31.375 5.0625 C32.13981689 5.22459961 32.90463379 5.38669922 33.69262695 5.55371094 C38.18584572 6.53441126 42.5911969 7.69131834 47 9 C47 9.33 47 9.66 47 10 C44.36 10 41.72 10 39 10 C39 9.34 39 8.68 39 8 C38.154375 7.93941406 37.30875 7.87882812 36.4375 7.81640625 C32.95697446 7.55932198 29.4783853 7.2845223 26 7 C24.84757812 6.90912109 24.84757812 6.90912109 23.671875 6.81640625 C19.28295768 6.37929863 15.443275 5.23092874 11.3203125 3.765625 C7.61471899 2.54290391 3.8217362 1.76796118 0 1 C0 0.67 0 0.34 0 0 Z " fill="#F9E49F" transform="translate(410,99)"/>
<path d="M0 0 C4.67337402 7.01006104 3.9204982 17.01661319 2.43359375 25.06640625 C1.2087888 29.36925506 -0.17562401 32.49524212 -3 36 C-3.3764771 29.59988922 -3.3764771 29.59988922 -1.5065918 26.62036133 C0.25774864 23.551707 0.34929101 21.77247268 0.29296875 18.26171875 C0.28330078 17.19501953 0.27363281 16.12832031 0.26367188 15.02929688 C0.23853516 13.92650391 0.21339844 12.82371094 0.1875 11.6875 C0.17396484 10.56537109 0.16042969 9.44324219 0.14648438 8.28710938 C0.1112138 5.52424771 0.06192235 2.76237171 0 0 Z " fill="#F8DE90" transform="translate(500,144)"/>
<path d="M0 0 C8.73857333 -0.32511421 17.06015799 0.67615695 25.6875 2 C27.61625977 2.28617187 27.61625977 2.28617187 29.58398438 2.578125 C32.72378797 3.04501029 35.86231786 3.51909977 39 4 C39 4.33 39 4.66 39 5 C34.99947709 4.8891747 30.99981612 4.75877311 27 4.625 C25.31197266 4.57859375 25.31197266 4.57859375 23.58984375 4.53125 C17.41166675 4.31447186 11.9309882 3.74120755 6 2 C4.00398694 1.6435691 2.005155 1.30077325 0 1 C0 0.67 0 0.34 0 0 Z " fill="#FAE3A4" transform="translate(328,81)"/>
<path d="M0 0 C0 0.66 0 1.32 0 2 C-3.66464553 2.6781037 -7.33198596 3.34038144 -11 4 C-12.02996094 4.19078125 -13.05992187 4.3815625 -14.12109375 4.578125 C-19.84590269 5.59911003 -25.18558138 6.22363149 -31 6 C-27.10264767 3.40176511 -23.41471558 2.81497179 -18.875 1.875 C-18.05773437 1.69324219 -17.24046875 1.51148437 -16.3984375 1.32421875 C-10.82504471 0.15133704 -5.69366267 -0.17184093 0 0 Z " fill="#F8E198" transform="translate(168,100)"/>
<path d="M0 0 C0.33 0 0.66 0 1 0 C1.0515625 1.29035156 1.103125 2.58070313 1.15625 3.91015625 C1.42909301 13.33768898 1.42909301 13.33768898 4.9140625 21.8203125 C6.87506192 23.47642155 8.72007265 24.82822339 11 26 C10.01 26.33 9.02 26.66 8 27 C7.5875 26.525625 7.175 26.05125 6.75 25.5625 C4.817815 23.83733482 3.51807725 23.43415125 1 23 C0.15808218 20.0751367 -0.11819313 17.49258344 -0.09765625 14.453125 C-0.09443359 13.60878906 -0.09121094 12.76445312 -0.08789062 11.89453125 C-0.07951172 11.02183594 -0.07113281 10.14914063 -0.0625 9.25 C-0.05798828 8.36183594 -0.05347656 7.47367188 -0.04882812 6.55859375 C-0.037074 4.37232671 -0.02064249 2.18619821 0 0 Z " fill="#F8E199" transform="translate(490,189)"/>
<path d="M0 0 C2.31284456 0.14026283 4.62527591 0.28735558 6.9375 0.4375 C8.86916016 0.55931641 8.86916016 0.55931641 10.83984375 0.68359375 C14 1 14 1 15 2 C17.32817964 2.36760731 19.6618385 2.70241581 22 3 C22 3.66 22 4.32 22 5 C24.64 5.33 27.28 5.66 30 6 C30 6.33 30 6.66 30 7 C19.6234548 6.74350113 9.9204037 3.78593721 0 1 C0 0.67 0 0.34 0 0 Z " fill="#F9E3A1" transform="translate(202,354)"/>
<path d="M0 0 C7.75 -0.125 7.75 -0.125 10 1 C10 1.66 10 2.32 10 3 C11.134375 2.938125 12.26875 2.87625 13.4375 2.8125 C18.33847991 2.78619778 22.473967 4.23987606 27 6 C27 6.66 27 7.32 27 8 C20.66361809 7.42063175 15.02931548 5.93337939 9 3.9375 C8.12988281 3.65583984 7.25976562 3.37417969 6.36328125 3.08398438 C4.24002411 2.39567574 2.11911583 1.70093339 0 1 C0 0.67 0 0.34 0 0 Z " fill="#F9E19A" transform="translate(406,340)"/>
<path d="M0 0 C2.4375 0.75 2.4375 0.75 5 2 C5.8125 4.125 5.8125 4.125 6 6 C6.66 6 7.32 6 8 6 C8.33 6.99 8.66 7.98 9 9 C10.65 9.33 12.3 9.66 14 10 C13.67 12.64 13.34 15.28 13 18 C12.01 18 11.02 18 10 18 C10.103125 17.0925 10.20625 16.185 10.3125 15.25 C10.36074081 11.87600854 10.36074081 11.87600854 7.8125 10.0625 C6.884375 9.381875 5.95625 8.70125 5 8 C0 1.89189189 0 1.89189189 0 0 Z " fill="#F8E29F" transform="translate(110,186)"/>
<path d="M0 0 C0.33 0 0.66 0 1 0 C1.0272415 1.41655793 1.04650467 2.83327045 1.0625 4.25 C1.07410156 5.03890625 1.08570312 5.8278125 1.09765625 6.640625 C1.00270919 8.93454607 0.55470912 10.78116352 0 13 C-0.2198223 15.24707241 -0.40483987 17.49771238 -0.5625 19.75 C-0.64628906 20.92046875 -0.73007813 22.0909375 -0.81640625 23.296875 C-0.87699219 24.18890625 -0.93757813 25.0809375 -1 26 C-1.33 26 -1.66 26 -2 26 C-3.8935884 16.53205802 -2.57150162 9.18393437 0 0 Z " fill="#F8E2A6" transform="translate(117,278)"/>
<path d="M0 0 C2.475 0.495 2.475 0.495 5 1 C5 2.32 5 3.64 5 5 C5.99 5.33 6.98 5.66 8 6 C8 6.66 8 7.32 8 8 C9.32 8 10.64 8 12 8 C12.309375 8.78375 12.61875 9.5675 12.9375 10.375 C13.92875038 12.92330128 13.92875038 12.92330128 15 15 C8.12332545 12.09063769 3.97312921 7.07655056 0 1 C0 0.67 0 0.34 0 0 Z " fill="#FADD97" transform="translate(120,314)"/>
<path d="M0 0 C-2.67838338 3.33331654 -5.91660841 4.29411268 -9.875 5.6875 C-11.08929688 6.12449219 -12.30359375 6.56148438 -13.5546875 7.01171875 C-16.60970953 7.88804593 -18.85937785 8.22091829 -22 8 C-20.66666667 7.33333333 -19.33333333 6.66666667 -18 6 C-17.34 5.62875 -16.68 5.2575 -16 4.875 C-14 4 -14 4 -10 4 C-10 3.34 -10 2.68 -10 2 C-6.5980513 -0.09350689 -3.94727588 -0.17942163 0 0 Z " fill="#F8E198" transform="translate(490,341)"/>
<path d="M0 0 C2.97 0.33 5.94 0.66 9 1 C9 1.66 9 2.32 9 3 C10.11375 2.87625 10.11375 2.87625 11.25 2.75 C14.78157027 3.07105184 15.76630364 4.35265617 18 7 C17.01 7.495 17.01 7.495 16 8 C13.23325418 6.92664301 10.56805742 5.79739939 7.875 4.5625 C7.12089844 4.22412109 6.36679688 3.88574219 5.58984375 3.53710938 C3.72340669 2.69839399 1.8612857 1.85008607 0 1 C0 0.67 0 0.34 0 0 Z " fill="#F7E096" transform="translate(183,346)"/>
<path d="M0 0 C1.21992215 2.9122997 1.01199085 3.96877469 -0.14453125 6.98046875 C-0.69496094 8.03878906 -1.24539063 9.09710938 -1.8125 10.1875 C-2.62654297 11.78658203 -2.62654297 11.78658203 -3.45703125 13.41796875 C-5 16 -5 16 -7 17 C-7.33 15.35 -7.66 13.7 -8 12 C-7.01 12.33 -6.02 12.66 -5 13 C-5 11.02 -5 9.04 -5 7 C-4.01 6.67 -3.02 6.34 -2 6 C-2 5.01 -2 4.02 -2 3 C-1.34 3 -0.68 3 0 3 C0 2.01 0 1.02 0 0 Z " fill="#F8DE8E" transform="translate(514,309)"/>
<path d="M0 0 C6.86036401 0.65965039 13.34443923 2.2362764 20 4 C20 4.33 20 4.66 20 5 C13.59646678 5.2361959 8.15370839 4.823321 2 3 C2 2.34 2 1.68 2 1 C1.34 0.67 0.68 0.34 0 0 Z " fill="#F9E096" transform="translate(368,86)"/>
<path d="M0 0 C4.95755781 7.43633672 4.06928283 15.4601871 3 24 C2.67 24 2.34 24 2 24 C1.34 16.08 0.68 8.16 0 0 Z " fill="#FAE7A9" transform="translate(507,226)"/>
<path d="M0 0 C5.93333307 0.40919538 9.38048494 1.18890008 14 5 C14 5.66 14 6.32 14 7 C8.547001 5.43181728 4.23513217 3.96189783 0 0 Z " fill="#F8DE94" transform="translate(138,331)"/>
<path d="M0 0 C1.32 0.66 2.64 1.32 4 2 C2.73427767 3.15147661 1.46222094 4.29599314 0.1875 5.4375 C-0.52019531 6.07558594 -1.22789062 6.71367187 -1.95703125 7.37109375 C-4 9 -4 9 -7 10 C-7.33 9.01 -7.66 8.02 -8 7 C-6.02 6.67 -4.04 6.34 -2 6 C-1.855625 5.195625 -1.71125 4.39125 -1.5625 3.5625 C-1 1 -1 1 0 0 Z " fill="#F9DD8D" transform="translate(499,330)"/>
<path d="M0 0 C2.475 0.99 2.475 0.99 5 2 C4.47731534 4.76276177 3.89130413 7.3260876 3 10 C0.4375 11.1875 0.4375 11.1875 -2 12 C-0.97307681 9.94615363 0.03176871 7.94917007 1.25 6 C2.27030843 3.95505381 2.27030843 3.95505381 1.125 1.75 C0.75375 1.1725 0.3825 0.595 0 0 Z " fill="#F8E093" transform="translate(124,259)"/>
<path d="M0 0 C0.91007812 0.00902344 1.82015625 0.01804687 2.7578125 0.02734375 C3.45648438 0.03894531 4.15515625 0.05054688 4.875 0.0625 C4.545 0.7225 4.215 1.3825 3.875 2.0625 C-1.08598482 3.30274621 -6.04941192 3.16401176 -11.125 3.0625 C-7.05343521 1.0267176 -4.61375072 -0.05915065 0 0 Z " fill="#F6DD90" transform="translate(347.125,348.9375)"/>
<path d="M0 0 C0.66 0.33 1.32 0.66 2 1 C1.3503125 1.5878125 1.3503125 1.5878125 0.6875 2.1875 C-1.13512023 3.99104472 -1.13512023 3.99104472 -2.375 6.5625 C-4.29492093 9.44238139 -5.73894457 10.03049703 -9 11 C-7.59155282 7.78475695 -5.89655214 5.67816132 -3.375 3.25 C-2.74335937 2.63640625 -2.11171875 2.0228125 -1.4609375 1.390625 C-0.73777344 0.70226562 -0.73777344 0.70226562 0 0 Z " fill="#F9E296" transform="translate(115,115)"/>
<path d="M0 0 C0.99 0.33 1.98 0.66 3 1 C3 2.32 3 3.64 3 5 C3.66 5 4.32 5 5 5 C5.28875 5.78375 5.5775 6.5675 5.875 7.375 C6.84912254 10.09671632 6.84912254 10.09671632 9 12 C8.01 12 7.02 12 6 12 C4.39453125 9.8828125 4.39453125 9.8828125 2.8125 7.125 C2.01779297 5.76761719 2.01779297 5.76761719 1.20703125 4.3828125 C0 2 0 2 0 0 Z " fill="#FAE29E" transform="translate(116,246)"/>
<path d="M0 0 C1.28222189 3.03070628 0.98589446 4.03596914 -0.25 7.1875 C-2 10 -2 10 -5 11 C-3.92289822 6.69159287 -2.96052484 3.36423277 0 0 Z " fill="#F9DE96" transform="translate(119,204)"/>
<path d="M0 0 C1.32 0 2.64 0 4 0 C3.67 2.64 3.34 5.28 3 8 C2.01 8 1.02 8 0 8 C0 5.36 0 2.72 0 0 Z " fill="#F7DA81" transform="translate(120,196)"/>
<path d="M0 0 C1.33470263 2.66940525 0.57333449 4.13332753 0 7 C0.33 7.66 0.66 8.32 1 9 C-0.32 8.67 -1.64 8.34 -3 8 C-2.74438677 5.6568787 -2.40729228 3.32156597 -2 1 C-1.34 0.67 -0.68 0.34 0 0 Z " fill="#F6DF8A" transform="translate(505,257)"/>
<path d="M0 0 C-1.31224548 3.93673644 -2.91910327 6.22719294 -6 9 C-6 7.68 -6 6.36 -6 5 C-5.34 5 -4.68 5 -4 5 C-4 3.68 -4 2.36 -4 1 C-2 0 -2 0 0 0 Z " fill="#F7E193" transform="translate(497,180)"/>
<path d="M0 0 C1.4391134 0.28359887 2.87625518 0.57721399 4.3125 0.875 C5.11300781 1.03742188 5.91351563 1.19984375 6.73828125 1.3671875 C9 2 9 2 12 4 C7.75519536 4.33292585 5.64457375 4.43885872 2.0625 2 C1.381875 1.34 0.70125 0.68 0 0 Z " fill="#F8DF95" transform="translate(388,91)"/>
<path d="M0 0 C4.21912747 0.4794463 6.79663178 1.16625119 10 4 C8.02 4 6.04 4 4 4 C4 3.34 4 2.68 4 2 C2.68 2 1.36 2 0 2 C0 1.34 0 0.68 0 0 Z " fill="#FADF9D" transform="translate(400,95)"/>
<path d="M0 0 C2.89932357 2.39509338 3.50168276 4.31245243 4 8 C2.68 7.34 1.36 6.68 0 6 C0 4.02 0 2.04 0 0 Z " fill="#F7E094" transform="translate(508,270)"/>
<path d="M0 0 C5.875 3.75 5.875 3.75 7 6 C4.625 5.8125 4.625 5.8125 2 5 C0.6875 2.4375 0.6875 2.4375 0 0 Z " fill="#F8E39B" transform="translate(483,122)"/>
</svg>
